<svg width="24" height="24" viewBox="0 0 24 24" fill="none" xmlns="http://www.w3.org/2000/svg">
<path d="M15 3.31061C15.2449 3.31064 15.4813 3.40056 15.6644 3.56332C15.8474 3.72608 15.9643 3.95036 15.993 4.19361L16 4.31061V20.3106C15.9997 20.5655 15.9021 20.8106 15.7272 20.996C15.5522 21.1813 15.313 21.2928 15.0586 21.3078C14.8042 21.3227 14.5536 21.2399 14.3582 21.0763C14.1627 20.9128 14.0371 20.6807 14.007 20.4276L14 20.3106V4.31061C14 4.04539 14.1054 3.79104 14.2929 3.6035C14.4804 3.41596 14.7348 3.31061 15 3.31061ZM11 6.31061C11.2449 6.31064 11.4813 6.40056 11.6644 6.56332C11.8474 6.72608 11.9643 6.95036 11.993 7.19361L12 7.31061V17.3106C11.9997 17.5655 11.9021 17.8106 11.7272 17.996C11.5522 18.1813 11.313 18.2928 11.0586 18.3078C10.8042 18.3227 10.5536 18.2399 10.3582 18.0763C10.1627 17.9128 10.0371 17.6807 10.007 17.4276L10 17.3106V7.31061C10 7.04539 10.1054 6.79104 10.2929 6.6035C10.4804 6.41596 10.7348 6.31061 11 6.31061ZM19 6.31061C19.2449 6.31064 19.4813 6.40056 19.6644 6.56332C19.8474 6.72608 19.9643 6.95036 19.993 7.19361L20 7.31061V17.3106C19.9997 17.5655 19.9021 17.8106 19.7272 17.996C19.5522 18.1813 19.313 18.2928 19.0586 18.3078C18.8042 18.3227 18.5536 18.2399 18.3582 18.0763C18.1627 17.9128 18.0371 17.6807 18.007 17.4276L18 17.3106V7.31061C18 7.04539 18.1054 6.79104 18.2929 6.6035C18.4804 6.41596 18.7348 6.31061 19 6.31061ZM7 9.31061C7.24493 9.31064 7.48134 9.40056 7.66437 9.56332C7.84741 9.72608 7.96434 9.95036 7.993 10.1936L8 10.3106V14.3106C7.99972 14.5655 7.90212 14.8106 7.72715 14.996C7.55218 15.1813 7.31305 15.2928 7.05861 15.3078C6.80416 15.3227 6.55362 15.2399 6.35817 15.0763C6.16271 14.9128 6.0371 14.6807 6.007 14.4276L6 14.3106V10.3106C6 10.0454 6.10536 9.79104 6.29289 9.6035C6.48043 9.41597 6.73478 9.31061 7 9.31061ZM23 9.31061C23.2449 9.31064 23.4813 9.40056 23.6644 9.56332C23.8474 9.72608 23.9643 9.95036 23.993 10.1936L24 10.3106V14.3106C23.9997 14.5655 23.9021 14.8106 23.7272 14.996C23.5522 15.1813 23.313 15.2928 23.0586 15.3078C22.8042 15.3227 22.5536 15.2399 22.3582 15.0763C22.1627 14.9128 22.0371 14.6807 22.007 14.4276L22 14.3106V10.3106C22 10.0454 22.1054 9.79104 22.2929 9.6035C22.4804 9.41597 22.7348 9.31061 23 9.31061Z" fill="white"/>
</svg>
