<svg width="1280" height="720" viewBox="0 0 1280 720" fill="none" xmlns="http://www.w3.org/2000/svg">
<rect width="1280" height="720" fill="url(#paint0_linear_101_2)"/>
<g clip-path="url(#clip0_101_2)">
<rect width="1280" height="720" fill="black" fill-opacity="0.5"/>
<path opacity="0.010101" d="M157.067 468.069L294.643 209.326C298.405 202.25 306.297 198.401 314.19 199.793L602.782 250.679C610.675 252.071 616.774 258.387 617.89 266.324L658.674 556.516C659.789 564.453 655.667 572.205 648.464 575.719L385.077 704.181C377.873 707.694 369.227 706.17 363.659 700.405L160.093 489.606C154.526 483.841 153.304 475.146 157.067 468.069Z" stroke="url(#paint1_linear_101_2)" stroke-opacity="0.5" stroke-width="3"/>
<path opacity="0.020202" d="M154.149 464.411L295.935 208.622C299.82 201.612 307.778 197.902 315.645 199.431L602.729 255.235C610.596 256.764 616.584 263.185 617.561 271.14L653.202 561.417C654.179 569.372 649.923 577.051 642.659 580.438L377.603 704.036C370.339 707.423 361.72 705.748 356.254 699.886L156.799 485.997C151.333 480.135 150.263 471.421 154.149 464.411Z" stroke="url(#paint2_linear_101_2)" stroke-opacity="0.5" stroke-width="3"/>
<path opacity="0.030303" d="M151.314 460.763L297.248 207.997C301.256 201.056 309.277 197.485 317.116 199.152L602.607 259.835C610.447 261.501 616.322 268.026 617.159 275.997L647.668 566.267C648.506 574.237 644.116 581.841 636.794 585.101L370.158 703.815C362.837 707.075 354.249 705.249 348.886 699.293L153.587 482.392C148.224 476.436 147.306 467.704 151.314 460.763Z" stroke="url(#paint3_linear_101_2)" stroke-opacity="0.5" stroke-width="3"/>
<path opacity="0.040404" d="M148.56 457.129L298.581 207.452C302.709 200.582 310.791 197.152 318.6 198.954L602.416 264.479C610.225 266.281 615.986 272.908 616.684 280.892L642.071 571.065C642.77 579.049 638.248 586.575 630.87 589.707L362.744 703.519C355.367 706.651 346.812 704.676 341.553 698.627L150.456 478.794C145.198 472.745 144.432 463.999 148.56 457.129Z" stroke="url(#paint4_linear_101_2)" stroke-opacity="0.5" stroke-width="3"/>
<path opacity="0.050505" d="M145.889 453.508L299.933 206.986C304.18 200.189 312.321 196.9 320.097 198.839L602.156 269.164C609.932 271.103 615.576 277.829 616.135 285.824L636.413 575.809C636.972 583.805 632.319 591.25 624.888 594.253L355.362 703.149C347.931 706.151 339.412 704.027 334.26 697.887L147.406 475.203C142.254 469.063 141.641 460.305 145.889 453.508Z" stroke="url(#paint5_linear_101_2)" stroke-opacity="0.5" stroke-width="3"/>
<path opacity="0.0606061" d="M143.298 449.901L301.301 206.598C305.666 199.876 313.863 196.73 321.604 198.804L601.825 273.889C609.566 275.964 615.092 282.787 615.511 290.791L630.694 580.499C631.114 588.502 626.332 595.866 618.849 598.738L348.012 702.703C340.53 705.575 332.049 703.303 327.005 697.074L144.436 471.62C139.392 465.391 138.933 456.623 143.298 449.901Z" stroke="url(#paint6_linear_101_2)" stroke-opacity="0.5" stroke-width="3"/>
<path opacity="0.0707071" d="M140.788 446.311L302.684 206.29C307.166 199.645 315.417 196.642 323.121 198.852L601.423 278.654C609.128 280.863 614.533 287.782 614.813 295.791L624.917 585.133C625.197 593.143 620.287 600.422 612.755 603.163L340.698 702.184C333.166 704.925 324.726 702.505 319.792 696.189L141.547 468.046C136.613 461.73 136.306 452.956 140.788 446.311Z" stroke="url(#paint7_linear_101_2)" stroke-opacity="0.5" stroke-width="3"/>
<path opacity="0.0808081" d="M138.358 442.74L304.082 206.063C308.679 199.497 316.98 196.639 324.645 198.982L600.95 283.457C608.615 285.8 613.899 292.812 614.039 300.826L619.081 589.712C619.221 597.725 614.185 604.918 606.607 607.527L333.418 701.593C325.84 704.203 317.444 701.636 312.62 695.235L138.738 464.485C133.914 458.084 133.761 449.305 138.358 442.74Z" stroke="url(#paint8_linear_101_2)" stroke-opacity="0.5" stroke-width="3"/>
<path opacity="0.0909091" d="M136.008 439.188L305.492 205.914C310.203 199.43 318.553 196.717 326.175 199.193L600.405 288.296C608.028 290.773 613.188 297.876 613.188 305.891V594.233C613.188 602.248 608.028 609.351 600.405 611.828L326.175 700.93C318.553 703.407 310.203 700.694 305.492 694.21L136.008 460.936C131.298 454.452 131.298 445.672 136.008 439.188Z" stroke="url(#paint9_linear_101_2)" stroke-opacity="0.5" stroke-width="3"/>
<path opacity="0.10101" d="M133.738 435.656L306.913 205.845C311.736 199.444 320.132 196.877 327.71 199.486L599.788 293.17C607.366 295.779 612.402 302.971 612.262 310.985L607.24 598.696C607.1 606.709 601.816 613.721 594.152 616.064L318.97 700.196C311.306 702.539 303.004 699.68 298.407 693.115L133.358 457.4C128.761 450.835 128.914 442.056 133.738 435.656Z" stroke="url(#paint10_linear_101_2)" stroke-opacity="0.5" stroke-width="3"/>
<path opacity="0.111111" d="M131.546 432.147L308.343 205.857C313.278 199.541 321.718 197.121 329.249 199.862L599.097 298.079C606.629 300.82 611.538 308.099 611.259 316.109L601.237 603.101C600.957 611.11 595.552 618.029 587.847 620.238L311.805 699.392C304.101 701.601 295.85 698.598 291.368 691.954L130.787 453.882C126.305 447.237 126.612 438.463 131.546 432.147Z" stroke="url(#paint11_linear_101_2)" stroke-opacity="0.5" stroke-width="3"/>
<path opacity="0.121212" d="M129.432 428.66L309.782 205.947C314.826 199.718 323.307 197.446 330.789 200.318L598.334 303.019C605.816 305.891 610.598 313.254 610.178 321.258L595.18 607.444C594.761 615.448 589.235 622.271 581.494 624.346L304.68 698.518C296.938 700.592 288.741 697.446 284.376 690.724L128.294 450.379C123.929 443.657 124.388 434.889 129.432 428.66Z" stroke="url(#paint12_linear_101_2)" stroke-opacity="0.5" stroke-width="3"/>
<path opacity="0.131313" d="M127.396 425.2L311.228 206.118C316.379 199.978 324.899 197.854 332.33 200.857L597.496 307.991C604.927 310.993 609.58 318.439 609.021 326.434L589.071 611.729C588.512 619.724 582.868 626.45 575.092 628.389L297.596 697.576C289.819 699.515 281.678 696.226 277.431 689.429L125.879 446.895C121.632 440.098 122.244 431.34 127.396 425.2Z" stroke="url(#paint13_linear_101_2)" stroke-opacity="0.5" stroke-width="3"/>
<path opacity="0.141414" d="M125.437 421.765L312.678 206.369C317.936 200.32 326.491 198.345 333.869 201.476L596.584 312.992C603.962 316.124 608.484 323.65 607.785 331.634L582.911 615.951C582.212 623.936 576.452 630.562 568.643 632.365L290.554 696.567C282.745 698.37 274.663 694.939 270.535 688.069L123.541 443.431C119.414 436.561 120.179 427.814 125.437 421.765Z" stroke="url(#paint14_linear_101_2)" stroke-opacity="0.5" stroke-width="3"/>
<path opacity="0.151515" d="M123.554 418.358L314.133 206.698C319.496 200.742 328.084 198.917 335.406 202.177L595.598 318.022C602.92 321.282 607.31 328.885 606.472 336.856L576.701 620.111C575.863 628.082 569.988 634.607 562.148 636.273L283.557 695.49C275.717 697.156 267.696 693.585 263.689 686.644L121.281 439.987C117.274 433.046 118.191 424.314 123.554 418.358Z" stroke="url(#paint15_linear_101_2)" stroke-opacity="0.5" stroke-width="3"/>
<path opacity="0.161616" d="M121.747 414.979L315.59 207.108C321.056 201.247 329.675 199.571 336.939 202.959L594.537 323.078C601.801 326.466 606.057 334.145 605.08 342.1L570.442 624.209C569.465 632.164 563.477 638.585 555.61 640.114L276.604 694.348C268.736 695.877 260.779 692.166 256.893 685.157L119.097 436.565C115.211 429.555 116.281 420.841 121.747 414.979Z" stroke="url(#paint16_linear_101_2)" stroke-opacity="0.5" stroke-width="3"/>
<path opacity="0.171717" d="M120.015 411.632L317.048 207.598C322.616 201.833 331.262 200.308 338.466 203.821L593.4 328.161C600.603 331.674 604.725 339.427 603.61 347.363L564.135 628.243C563.019 636.18 556.92 642.496 549.027 643.887L269.697 693.141C261.804 694.533 253.912 690.684 250.149 683.607L116.989 433.168C113.226 426.091 114.448 417.397 120.015 411.632Z" stroke="url(#paint17_linear_101_2)" stroke-opacity="0.5" stroke-width="3"/>
<path opacity="0.181818" d="M118.358 408.315L318.506 208.166C324.174 202.499 332.845 201.126 339.987 204.764L592.188 333.267C599.329 336.906 603.315 344.729 602.061 352.645L557.782 632.212C556.529 640.129 550.32 646.337 542.404 647.591L262.837 691.87C254.921 693.124 247.098 689.138 243.459 681.996L114.956 429.795C111.317 422.654 112.691 413.982 118.358 408.315Z" stroke="url(#paint18_linear_101_2)" stroke-opacity="0.5" stroke-width="3"/>
<path opacity="0.191919" d="M116.774 405.031L319.962 208.815C325.728 203.247 334.422 202.025 341.499 205.788L590.9 338.397C597.977 342.16 601.825 350.051 600.434 357.944L551.384 636.117C549.993 644.01 543.677 650.109 535.74 651.225L256.024 690.536C248.088 691.651 240.336 687.529 236.822 680.326L112.998 426.449C109.484 419.245 111.009 410.598 116.774 405.031Z" stroke="url(#paint19_linear_101_2)" stroke-opacity="0.5" stroke-width="3"/>
<path opacity="0.20202" d="M115.264 401.779L321.415 209.54C327.277 204.074 335.991 203.004 343.001 206.89L589.536 343.546C596.546 347.432 600.257 355.389 598.727 363.257L544.943 639.954C543.413 647.822 536.992 653.81 529.037 654.786L249.262 689.139C241.307 690.115 233.627 685.859 230.24 678.595L111.114 423.128C107.727 415.864 109.402 407.245 115.264 401.779Z" stroke="url(#paint20_linear_101_2)" stroke-opacity="0.5" stroke-width="3"/>
<path opacity="0.212121" d="M113.825 398.565L322.864 210.346C328.82 204.983 337.552 204.066 344.493 208.073L588.096 348.718C595.037 352.725 598.608 360.746 596.942 368.585L538.458 643.727C536.792 651.567 530.267 657.442 522.296 658.28L242.548 687.682C234.578 688.52 226.974 684.13 223.714 676.808L109.304 419.838C106.044 412.516 107.869 403.928 113.825 398.565Z" stroke="url(#paint21_linear_101_2)" stroke-opacity="0.5" stroke-width="3"/>
<path opacity="0.222222" d="M112.458 395.386L324.306 211.23C330.355 205.971 339.101 205.206 345.971 209.334L586.579 353.906C593.449 358.034 596.879 366.116 595.077 373.925L531.932 647.432C530.13 655.241 523.503 661.001 515.519 661.7L235.886 686.165C227.902 686.863 220.376 682.341 217.244 674.963L107.566 416.577C104.434 409.199 106.409 400.644 112.458 395.386Z" stroke="url(#paint22_linear_101_2)" stroke-opacity="0.5" stroke-width="3"/>
<path opacity="0.232323" d="M111.161 392.245L325.741 212.192C331.88 207.04 340.639 206.428 347.436 210.675L584.985 359.112C591.782 363.36 595.071 371.5 593.132 379.277L525.367 651.07C523.428 658.846 516.702 664.49 508.707 665.049L229.276 684.589C221.281 685.148 213.835 680.495 210.832 673.064L105.9 413.347C102.898 405.916 105.022 397.397 111.161 392.245Z" stroke="url(#paint23_linear_101_2)" stroke-opacity="0.5" stroke-width="3"/>
<path opacity="0.242424" d="M109.935 389.144L327.167 213.233C333.396 208.189 342.164 207.729 348.885 212.094L583.315 364.335C590.037 368.7 593.183 376.897 591.109 384.638L518.762 654.639C516.688 662.381 509.865 667.906 501.861 668.326L222.719 682.955C214.715 683.375 207.351 678.593 204.479 671.11L104.306 410.151C101.434 402.668 103.706 394.188 109.935 389.144Z" stroke="url(#paint24_linear_101_2)" stroke-opacity="0.5" stroke-width="3"/>
<path opacity="0.252525" d="M108.777 386.081L328.583 214.35C334.899 209.415 343.674 209.109 350.318 213.591L581.568 369.571C588.212 374.053 591.215 382.303 589.006 390.007L512.121 658.139C509.911 665.844 502.993 671.249 494.983 671.529L216.215 681.264C208.205 681.543 200.926 676.634 198.185 669.102L102.783 406.987C100.041 399.455 102.462 391.015 108.777 386.081Z" stroke="url(#paint25_linear_101_2)" stroke-opacity="0.5" stroke-width="3"/>
<path opacity="0.262626" d="M107.688 383.059L329.988 215.544C336.389 210.721 345.167 210.568 351.733 215.165L579.744 374.82C586.309 379.417 589.167 387.718 586.824 395.383L505.442 661.57C503.099 669.235 496.087 674.519 488.074 674.659L209.766 679.516C201.752 679.656 194.56 674.62 191.951 667.042L101.329 403.857C98.7198 396.279 101.287 387.883 107.688 383.059Z" stroke="url(#paint26_linear_101_2)" stroke-opacity="0.5" stroke-width="3"/>
<path opacity="0.272727" d="M106.665 380.081L331.38 216.816C337.864 212.105 346.644 212.105 353.128 216.816L577.842 380.081C584.326 384.792 587.039 393.142 584.563 400.765L498.729 664.932C496.253 672.555 489.15 677.715 481.135 677.715L203.373 677.715C195.358 677.715 188.255 672.555 185.778 664.932L99.9448 400.765C97.4681 393.142 100.181 384.792 106.665 380.081Z" stroke="url(#paint27_linear_101_2)" stroke-opacity="0.5" stroke-width="3"/>
<path opacity="0.282828" d="M105.71 377.146L332.758 218.165C339.323 213.568 348.102 213.721 354.502 218.544L575.864 385.352C582.264 390.175 584.831 398.572 582.222 406.15L491.983 668.223C489.374 675.801 482.181 680.837 474.168 680.698L197.036 675.86C189.022 675.72 182.01 670.436 179.667 662.772L98.6291 397.709C96.2858 390.044 99.1443 381.743 105.71 377.146Z" stroke="url(#paint28_linear_101_2)" stroke-opacity="0.5" stroke-width="3"/>
<path opacity="0.292929" d="M104.819 374.255L334.12 219.59C340.764 215.108 349.539 215.415 355.855 220.349L573.808 390.633C580.124 395.567 582.544 404.007 579.803 411.538L485.204 671.445C482.463 678.976 475.184 683.886 467.174 683.606L190.756 673.953C182.746 673.674 175.828 668.268 173.619 660.564L97.3809 394.692C95.1718 386.988 98.1747 378.737 104.819 374.255Z" stroke="url(#paint29_linear_101_2)" stroke-opacity="0.5" stroke-width="3"/>
<path opacity="0.30303" d="M103.993 371.409L335.465 221.09C342.187 216.724 350.955 217.184 357.184 222.228L571.675 395.919C577.904 400.963 580.176 409.444 577.304 416.926L478.395 674.594C475.522 682.076 468.159 686.858 460.155 686.438L184.535 671.994C176.531 671.574 169.708 666.049 167.633 658.307L96.1994 391.713C94.1251 383.971 97.2715 375.774 103.993 371.409Z" stroke="url(#paint30_linear_101_2)" stroke-opacity="0.5" stroke-width="3"/>
<path opacity="0.313131" d="M103.231 368.611L336.793 222.666C343.59 218.419 352.348 219.031 358.488 224.183L569.465 401.214C575.605 406.365 577.729 414.885 574.726 422.316L471.555 677.672C468.553 685.103 461.107 689.756 453.112 689.197L178.372 669.985C170.377 669.426 163.651 663.783 161.712 656.006L95.084 388.776C93.145 380.999 96.4341 372.858 103.231 368.611Z" stroke="url(#paint31_linear_101_2)" stroke-opacity="0.5" stroke-width="3"/>
<path opacity="0.323232" d="M102.531 365.859L338.101 224.315C344.971 220.187 353.717 220.952 359.766 226.21L567.178 406.511C573.227 411.769 575.202 420.324 572.07 427.701L464.688 680.678C461.556 688.055 454.031 692.577 446.046 691.879L172.269 667.926C164.285 667.228 157.658 661.468 155.855 653.658L94.0336 385.879C92.2307 378.069 95.6613 369.987 102.531 365.859Z" stroke="url(#paint32_linear_101_2)" stroke-opacity="0.5" stroke-width="3"/>
<path opacity="0.333333" d="M101.893 363.158L339.388 226.04C346.329 222.033 355.061 222.95 361.017 228.313L564.814 411.813C570.77 417.175 572.595 425.764 569.335 433.085L457.794 683.612C454.534 690.934 446.93 695.324 438.959 694.486L166.226 665.821C158.255 664.983 151.731 659.108 150.064 651.268L93.0475 383.025C91.3812 375.186 94.9523 367.165 101.893 363.158Z" stroke="url(#paint33_linear_101_2)" stroke-opacity="0.5" stroke-width="3"/>
<path opacity="0.343434" d="M101.316 360.505L340.653 227.838C347.663 223.952 356.378 225.022 362.239 230.488L562.372 417.115C568.234 422.581 569.909 431.2 566.522 438.464L450.874 686.473C447.487 693.737 439.807 697.993 431.852 697.017L160.244 663.667C152.289 662.691 145.868 656.703 144.339 648.835L92.1244 380.215C90.5952 372.348 94.3058 364.39 101.316 360.505Z" stroke="url(#paint34_linear_101_2)" stroke-opacity="0.5" stroke-width="3"/>
<path opacity="0.353535" d="M100.798 357.904L341.895 229.71C348.972 225.947 357.667 227.169 363.432 232.736L559.855 422.42C565.62 427.987 567.145 436.634 563.631 443.837L443.93 689.262C440.416 696.466 432.664 700.588 424.727 699.472L154.325 661.47C146.388 660.354 140.072 654.255 138.681 646.362L91.2641 377.451C89.8724 369.558 93.7213 361.666 100.798 357.904Z" stroke="url(#paint35_linear_101_2)" stroke-opacity="0.5" stroke-width="3"/>
<path opacity="0.363636" d="M100.339 355.353L343.113 231.653C350.254 228.015 358.926 229.388 364.593 235.055L557.26 427.722C562.927 433.39 564.301 442.062 560.662 449.203L436.963 691.977C433.324 699.118 425.501 703.104 417.585 701.851L148.467 659.226C140.551 657.973 134.343 651.764 133.089 643.848L90.4652 374.731C89.2114 366.815 93.1975 358.992 100.339 355.353Z" stroke="url(#paint36_linear_101_2)" stroke-opacity="0.5" stroke-width="3"/>
<path opacity="0.373737" d="M99.937 352.856L344.305 233.67C351.509 230.157 360.155 231.681 365.723 237.446L554.589 433.024C560.157 438.789 561.379 447.484 557.616 454.56L429.974 694.62C426.211 701.696 418.32 705.545 410.427 704.153L142.673 656.941C134.78 655.549 128.681 649.234 127.566 641.297L89.7269 372.059C88.6114 364.122 92.7334 356.37 99.937 352.856Z" stroke="url(#paint37_linear_101_2)" stroke-opacity="0.5" stroke-width="3"/>
<path opacity="0.383838" d="M99.5919 350.412L345.47 235.757C352.734 232.37 361.353 234.045 366.819 239.907L551.842 438.32C557.308 444.182 558.378 452.896 554.493 459.906L422.966 697.188C419.08 704.197 411.123 707.908 403.255 706.379L136.943 654.613C129.076 653.084 123.088 646.662 122.111 638.707L89.0482 369.433C88.0715 361.478 92.3281 353.799 99.5919 350.412Z" stroke="url(#paint38_linear_101_2)" stroke-opacity="0.5" stroke-width="3"/>
<path opacity="0.393939" d="M99.3019 348.022L346.607 237.915C353.928 234.655 362.517 236.481 367.88 242.437L549.019 443.613C554.382 449.569 555.3 458.301 551.292 465.242L415.938 699.682C411.931 706.623 403.91 710.194 396.07 708.528L131.277 652.245C123.437 650.578 117.562 644.053 116.725 636.083L88.4279 366.857C87.5901 358.886 91.9802 351.282 99.3019 348.022Z" stroke="url(#paint39_linear_101_2)" stroke-opacity="0.5" stroke-width="3"/>
<path opacity="0.40404" d="M99.0666 345.687L347.714 240.143C355.092 237.011 363.647 238.986 368.905 245.035L546.12 448.898C551.378 454.946 552.144 463.693 548.016 470.563L408.893 702.102C404.765 708.972 396.683 712.402 388.874 710.599L125.676 649.835C117.867 648.033 112.107 641.406 111.408 633.422L87.8655 364.329C87.167 356.345 91.689 348.819 99.0666 345.687Z" stroke="url(#paint40_linear_101_2)" stroke-opacity="0.5" stroke-width="3"/>
<path opacity="0.414141" d="M98.8842 343.41L348.791 242.441C356.222 239.439 364.741 241.563 369.893 247.702L543.146 454.177C548.297 460.316 548.91 469.075 544.663 475.872L401.832 704.449C397.585 711.246 389.444 714.535 381.667 712.596L120.141 647.39C112.364 645.451 106.72 638.725 106.161 630.73L87.3595 361.853C86.8004 353.858 91.4531 346.412 98.8842 343.41Z" stroke="url(#paint41_linear_101_2)" stroke-opacity="0.5" stroke-width="3"/>
<path opacity="0.424242" d="M98.754 341.189L349.836 244.808C357.319 241.935 365.799 244.208 370.843 250.436L540.096 459.446C545.14 465.675 545.599 474.443 541.234 481.165L394.756 706.721C390.391 713.443 382.194 716.589 374.452 714.515L114.671 644.907C106.93 642.832 101.404 636.009 100.985 628.005L86.9091 359.428C86.4897 351.425 91.2716 344.061 98.754 341.189Z" stroke="url(#paint42_linear_101_2)" stroke-opacity="0.5" stroke-width="3"/>
<path opacity="0.434343" d="M98.6749 339.026L350.849 247.242C358.38 244.501 366.82 246.921 371.754 253.236L536.972 464.705C541.906 471.021 542.212 479.796 537.731 486.44L387.667 708.919C383.185 715.563 374.935 718.566 367.23 716.357L109.269 642.387C101.564 640.178 96.1588 633.26 95.8791 625.25L86.5135 357.056C86.2338 349.046 91.1435 341.767 98.6749 339.026Z" stroke="url(#paint43_linear_101_2)" stroke-opacity="0.5" stroke-width="3"/>
<path opacity="0.444444" d="M98.6454 336.921L351.827 249.744C359.405 247.135 367.801 249.702 372.625 256.102L533.773 469.953C538.596 476.354 538.749 485.133 534.152 491.698L380.566 711.042C375.969 717.607 367.667 720.466 360.002 718.122L103.933 639.834C96.2683 637.491 90.9844 630.479 90.8445 622.465L86.1713 354.736C86.0314 346.723 91.0674 339.531 98.6454 336.921Z" stroke="url(#paint44_linear_101_2)" stroke-opacity="0.5" stroke-width="3"/>
<path opacity="0.454545" d="M98.6648 334.877L352.77 252.313C360.393 249.836 368.743 252.55 373.454 259.034L530.499 475.188C535.21 481.672 535.21 490.452 530.499 496.936L373.454 713.091C368.743 719.575 360.393 722.289 352.77 719.812L98.6648 637.248C91.0424 634.771 85.8817 627.668 85.8816 619.653L85.8816 352.471C85.8816 344.457 91.0424 337.354 98.6648 334.877Z" stroke="url(#paint45_linear_101_2)" stroke-opacity="0.5" stroke-width="3"/>
<path opacity="0.464646" d="M98.7315 332.892L353.677 254.947C361.341 252.604 369.643 255.463 374.24 262.028L527.152 480.409C531.749 486.974 531.596 495.753 526.773 502.154L366.332 715.066C361.509 721.466 353.113 724.033 345.534 721.424L93.4646 634.629C85.8866 632.02 80.8506 624.828 80.9905 616.815L85.6432 350.261C85.7831 342.247 91.067 335.235 98.7315 332.892Z" stroke="url(#paint46_linear_101_2)" stroke-opacity="0.5" stroke-width="3"/>
<path opacity="0.474747" d="M98.8446 330.968L354.546 257.646C362.251 255.437 370.501 258.44 374.983 265.085L523.732 485.614C528.214 492.258 527.907 501.033 522.973 507.349L359.203 716.965C354.269 723.28 345.829 725.7 338.297 722.959L88.333 631.98C80.8016 629.239 75.8919 621.96 76.1716 613.95L85.4551 348.105C85.7348 340.095 91.1404 333.177 98.8446 330.968Z" stroke="url(#paint47_linear_101_2)" stroke-opacity="0.5" stroke-width="3"/>
<path opacity="0.484848" d="M99.0028 329.105L355.378 260.41C363.119 258.335 371.316 261.482 375.681 268.204L520.239 490.802C524.604 497.524 524.144 506.292 519.1 512.521L352.067 718.79C347.023 725.018 338.542 727.291 331.06 724.419L83.2702 629.301C75.7878 626.429 71.0059 619.065 71.4254 611.061L85.3163 346.007C85.7358 338.003 91.2612 331.179 99.0028 329.105Z" stroke="url(#paint48_linear_101_2)" stroke-opacity="0.5" stroke-width="3"/>
<path opacity="0.494949" d="M99.2049 327.304L356.169 263.236C363.946 261.297 372.087 264.586 376.334 271.383L516.673 495.972C520.92 502.769 520.307 511.528 515.156 517.667L344.926 720.54C339.774 726.679 331.255 728.803 323.824 725.801L78.2766 626.594C70.8455 623.591 66.1928 616.145 66.7519 608.15L85.2255 343.964C85.7846 335.969 91.4283 329.243 99.2049 327.304Z" stroke="url(#paint49_linear_101_2)" stroke-opacity="0.5" stroke-width="3"/>
<path opacity="0.50505" d="M99.4497 325.568L356.92 266.126C364.73 264.323 372.812 267.754 376.939 274.624L513.035 501.124C517.163 507.994 516.397 516.741 511.139 522.79L337.78 722.217C332.522 728.265 323.967 730.24 316.59 727.109L73.3524 623.861C65.9749 620.729 61.4528 613.203 62.1514 605.219L85.1817 341.981C85.8802 333.997 91.6404 327.371 99.4497 325.568Z" stroke="url(#paint50_linear_101_2)" stroke-opacity="0.5" stroke-width="3"/>
<path opacity="0.515152" d="M99.7359 323.895L357.63 269.078C365.469 267.411 373.49 270.982 377.498 277.923L509.325 506.256C513.333 513.196 512.415 521.928 507.052 527.884L330.632 723.819C325.269 729.775 316.681 731.6 309.359 728.34L68.4981 621.102C61.1763 617.842 56.7863 610.238 57.6241 602.268L85.1836 340.057C86.0214 332.086 91.8963 325.561 99.7359 323.895Z" stroke="url(#paint51_linear_101_2)" stroke-opacity="0.5" stroke-width="3"/>
<path opacity="0.525253" d="M100.062 322.285L358.297 272.089C366.164 270.56 374.121 274.271 378.007 281.28L505.545 511.365C509.43 518.374 508.36 527.089 502.894 532.95L323.483 725.346C318.017 731.207 309.398 732.883 302.134 729.496L63.714 618.318C56.4502 614.931 52.1936 607.252 53.1703 599.297L85.2302 338.191C86.2069 330.236 92.1949 323.814 100.062 322.285Z" stroke="url(#paint52_linear_101_2)" stroke-opacity="0.5" stroke-width="3"/>
<path opacity="0.535354" d="M100.428 320.741L358.92 275.162C366.813 273.77 374.705 277.619 378.467 284.695L501.694 516.451C505.457 523.528 504.235 532.222 498.667 537.988L316.334 726.8C310.766 732.565 302.119 734.09 294.916 730.576L59.0006 615.513C51.7971 611.999 47.6751 604.247 48.7905 596.31L85.3207 336.385C86.4361 328.448 92.5352 322.132 100.428 320.741Z" stroke="url(#paint53_linear_101_2)" stroke-opacity="0.5" stroke-width="3"/>
<path opacity="0.545455" d="M100.831 319.261L359.499 278.292C367.415 277.039 375.238 281.025 378.877 288.166L497.773 521.513C501.412 528.654 500.038 537.326 494.371 542.994L309.185 728.179C303.518 733.846 294.846 735.22 287.705 731.581L54.3576 612.685C47.2165 609.046 43.2305 601.223 44.4842 593.307L85.4532 334.64C86.707 326.724 92.9154 320.515 100.831 319.261Z" stroke="url(#paint54_linear_101_2)" stroke-opacity="0.5" stroke-width="3"/>
<path opacity="0.555556" d="M101.271 317.848L360.032 281.481C367.969 280.366 375.721 284.488 379.235 291.691L493.783 526.55C497.296 533.753 495.772 542.4 490.007 547.968L302.04 729.485C296.275 735.052 287.58 736.274 280.504 732.512L49.7857 609.837C42.7092 606.074 38.8602 598.183 40.252 590.29L85.627 332.955C87.0187 325.062 93.3345 318.963 101.271 317.848Z" stroke="url(#paint55_linear_101_2)" stroke-opacity="0.5" stroke-width="3"/>
<path opacity="0.565657" d="M101.747 316.501L360.52 284.728C368.475 283.751 376.154 288.008 379.541 295.272L489.724 531.561C493.112 538.825 491.436 547.443 485.575 552.909L294.899 730.718C289.037 736.184 280.323 737.254 273.313 733.368L45.2851 606.97C38.2753 603.085 34.5647 595.127 36.094 587.26L85.8411 331.333C87.3703 323.466 93.7916 317.478 101.747 316.501Z" stroke="url(#paint56_linear_101_2)" stroke-opacity="0.5" stroke-width="3"/>
<path opacity="0.575758" d="M102.256 315.221L360.959 288.03C368.93 287.192 376.534 291.582 379.794 298.904L485.598 536.543C488.857 543.865 487.032 552.453 481.076 557.816L287.763 731.876C281.807 737.239 273.075 738.157 266.134 734.149L40.8556 604.085C33.9147 600.078 30.3436 592.057 32.0099 584.217L86.0937 329.773C87.76 321.933 94.2849 316.058 102.256 315.221Z" stroke="url(#paint57_linear_101_2)" stroke-opacity="0.5" stroke-width="3"/>
<path opacity="0.585859" d="M102.798 314.008L361.351 291.388C369.335 290.689 376.861 295.212 379.993 302.589L481.403 541.498C484.535 548.875 482.56 557.43 476.511 562.688L280.633 732.963C274.584 738.221 265.838 738.986 258.968 734.858L36.4978 601.185C29.6279 597.057 26.1973 588.975 28.0002 581.165L86.3842 328.276C88.1871 320.467 94.8135 314.707 102.798 314.008Z" stroke="url(#paint58_linear_101_2)" stroke-opacity="0.5" stroke-width="3"/>
<path opacity="0.59596" d="M103.371 312.863L361.693 294.8C369.688 294.241 377.134 298.893 380.136 306.324L477.142 546.422C480.144 553.853 478.02 562.372 471.881 567.524L273.511 733.975C267.372 739.127 258.613 739.74 251.816 735.493L32.2114 598.268C25.4146 594.021 22.1255 585.88 24.0644 578.104L86.7108 326.843C88.6498 319.066 95.3757 313.422 103.371 312.863Z" stroke="url(#paint59_linear_101_2)" stroke-opacity="0.5" stroke-width="3"/>
<path opacity="0.606061" d="M103.974 311.787L361.986 298.265C369.989 297.846 377.353 302.628 380.225 310.11L472.815 551.315C475.687 558.797 473.415 567.278 467.186 572.322L266.399 734.916C260.17 739.96 251.402 740.42 244.68 736.055L27.997 595.339C21.2753 590.974 18.1288 582.777 20.2032 575.035L87.073 325.473C89.1474 317.732 95.9707 312.206 103.974 311.787Z" stroke="url(#paint60_linear_101_2)" stroke-opacity="0.5" stroke-width="3"/>
<path opacity="0.616162" d="M104.607 310.779L362.227 301.782C370.237 301.503 377.516 306.412 380.257 313.944L468.422 556.175C471.164 563.707 468.743 572.147 462.428 577.081L259.296 735.785C252.981 740.719 244.206 741.025 237.562 736.544L23.8543 592.396C17.2098 587.915 14.2068 579.664 16.416 571.96L87.4691 324.168C89.6782 316.464 96.597 311.058 104.607 310.779Z" stroke="url(#paint61_linear_101_2)" stroke-opacity="0.5" stroke-width="3"/>
<path opacity="0.626263" d="M105.267 309.84L362.417 305.352C370.431 305.212 377.623 310.248 380.232 317.826L463.965 561.004C466.574 568.582 464.007 576.978 457.606 581.801L252.206 736.582C245.805 741.405 237.026 741.559 230.461 736.962L19.7834 589.444C13.2182 584.847 10.3597 576.545 12.7029 568.88L87.8979 322.929C90.2412 315.264 97.2532 309.98 105.267 309.84Z" stroke="url(#paint62_linear_101_2)" stroke-opacity="0.5" stroke-width="3"/>
<path opacity="0.636364" d="M105.953 308.971L362.555 308.971C370.569 308.971 377.673 314.132 380.149 321.754L459.444 565.797C461.92 573.42 459.207 581.77 452.723 586.481L245.128 737.308C238.644 742.019 229.864 742.019 223.38 737.308L15.7844 586.481C9.30037 581.77 6.58721 573.42 9.06388 565.797L88.3583 321.754C90.8349 314.132 97.9381 308.971 105.953 308.971Z" stroke="url(#paint63_linear_101_2)" stroke-opacity="0.5" stroke-width="3"/>
<path opacity="0.646465" d="M106.664 308.171L362.639 312.639C370.653 312.779 377.665 318.063 380.008 325.728L454.859 570.555C457.202 578.22 454.344 586.521 447.779 591.118L238.064 737.962C231.499 742.559 222.72 742.406 216.319 737.582L11.8574 583.509C5.4566 578.686 2.88958 570.29 5.4989 562.712L88.849 320.645C91.4583 313.067 98.6505 308.031 106.664 308.171Z" stroke="url(#paint64_linear_101_2)" stroke-opacity="0.5" stroke-width="3"/>
<path opacity="0.656566" d="M107.399 307.442L362.67 316.356C370.679 316.636 377.598 322.041 379.807 329.745L450.212 575.277C452.421 582.981 449.418 591.232 442.774 595.713L231.016 738.546C224.371 743.028 215.597 742.721 209.281 737.787L8.00243 580.531C1.68677 575.597 -0.733334 567.157 2.00785 559.625L89.3688 319.603C92.11 312.072 99.389 307.162 107.399 307.442Z" stroke="url(#paint65_linear_101_2)" stroke-opacity="0.5" stroke-width="3"/>
<path opacity="0.666667" d="M108.156 306.781L362.645 320.118C370.649 320.538 377.472 326.063 379.547 333.805L445.504 579.96C447.578 587.702 444.432 595.899 437.71 600.264L223.984 739.059C217.263 743.424 208.495 742.964 202.266 737.92L4.21933 577.545C-2.00924 572.502 -4.28168 564.021 -1.40948 556.538L89.9165 318.626C92.7887 311.144 100.152 306.362 108.156 306.781Z" stroke="url(#paint66_linear_101_2)" stroke-opacity="0.5" stroke-width="3"/>
<path opacity="0.676768" d="M108.934 306.192L362.565 323.928C370.561 324.487 377.286 330.131 379.225 337.907L440.734 584.606C442.673 592.382 439.384 600.523 432.587 604.77L216.97 739.503C210.174 743.75 201.415 743.137 195.275 737.986L0.5079 574.556C-5.63171 569.405 -7.75579 560.885 -4.75344 553.454L90.4906 317.717C93.4929 310.286 100.939 305.633 108.934 306.192Z" stroke="url(#paint67_linear_101_2)" stroke-opacity="0.5" stroke-width="3"/>
<path opacity="0.686869" d="M109.732 305.674L362.43 327.782C370.414 328.48 377.04 334.241 378.843 342.05L435.905 589.212C437.708 597.021 434.277 605.103 427.407 609.231L209.976 739.877C203.106 744.005 194.359 743.24 188.31 737.981L-3.13167 571.564C-9.18043 566.305 -11.1555 557.75 -8.02392 550.373L91.0901 316.875C94.2217 309.497 101.748 304.975 109.732 305.674Z" stroke="url(#paint68_linear_101_2)" stroke-opacity="0.5" stroke-width="3"/>
<path opacity="0.69697" d="M110.548 305.226L362.237 331.679C370.208 332.517 376.733 338.392 378.399 346.232L431.016 593.777C432.683 601.616 429.112 609.637 422.171 613.644L203.001 740.182C196.06 744.189 187.328 743.272 181.372 737.909L-6.69939 568.568C-12.6555 563.206 -14.4809 554.617 -11.2211 547.296L91.7139 316.1C94.9738 308.778 102.577 304.388 110.548 305.226Z" stroke="url(#paint69_linear_101_2)" stroke-opacity="0.5" stroke-width="3"/>
<path opacity="0.707071" d="M111.382 304.85L361.987 335.621C369.942 336.598 376.363 342.585 377.893 350.453L426.069 598.301C427.599 606.169 423.888 614.126 416.878 618.012L196.048 740.42C189.038 744.306 180.323 743.236 174.462 737.77L-10.1958 565.574C-16.0573 560.108 -17.7327 551.489 -14.3455 544.225L92.3603 315.394C95.7474 308.13 103.427 303.874 111.382 304.85Z" stroke="url(#paint70_linear_101_2)" stroke-opacity="0.5" stroke-width="3"/>
<path opacity="0.717172" d="M112.231 304.545L361.679 339.602C369.616 340.718 375.931 346.817 377.323 354.71L421.065 602.782C422.457 610.675 418.608 618.567 411.531 622.329L189.117 740.589C182.041 744.352 173.346 743.13 167.581 737.562L-13.6206 562.578C-19.3859 557.011 -20.9105 548.364 -17.3971 541.161L93.0284 314.755C96.5418 307.551 104.294 303.429 112.231 304.545Z" stroke="url(#paint71_linear_101_2)" stroke-opacity="0.5" stroke-width="3"/>
<path opacity="0.727273" d="M113.094 304.311L361.312 343.625C369.228 344.879 375.436 351.087 376.69 359.003L416.004 607.221C417.258 615.137 413.272 622.96 406.131 626.599L182.21 740.692C175.069 744.331 166.397 742.957 160.73 737.29L-16.9745 559.585C-22.6417 553.918 -24.0152 545.246 -20.3766 538.105L93.7166 314.185C97.3552 307.044 105.178 303.058 113.094 304.311Z" stroke="url(#paint72_linear_101_2)" stroke-opacity="0.5" stroke-width="3"/>
<path opacity="0.737374" d="M113.971 304.149L360.886 347.687C368.779 349.078 374.878 355.394 375.994 363.331L410.888 611.615C412.003 619.552 407.881 627.304 400.678 630.817L175.328 740.728C168.125 744.241 159.478 742.716 153.911 736.951L-20.257 556.595C-25.8244 550.83 -27.0464 542.135 -23.2837 535.059L94.4241 313.683C98.1868 306.606 106.078 302.757 113.971 304.149Z" stroke="url(#paint73_linear_101_2)" stroke-opacity="0.5" stroke-width="3"/>
<path opacity="0.747475" d="M114.86 304.059L360.4 351.787C368.268 353.317 374.256 359.738 375.232 367.693L405.716 615.965C406.693 623.92 402.436 631.599 395.173 634.986L168.472 740.698C161.208 744.085 152.59 742.41 147.124 736.548L-23.4689 553.61C-28.9349 547.749 -30.005 539.034 -26.1194 532.024L95.1491 313.25C99.0347 306.24 106.992 302.53 114.86 304.059Z" stroke="url(#paint74_linear_101_2)" stroke-opacity="0.5" stroke-width="3"/>
<path opacity="0.757576" d="M115.759 304.039L359.854 355.923C367.693 357.59 373.568 364.115 374.406 372.085L400.491 620.267C401.329 628.238 396.939 635.841 389.617 639.101L161.643 740.602C154.321 743.862 145.733 742.036 140.37 736.08L-26.6101 550.629C-31.973 544.673 -32.8908 535.941 -28.8834 529L95.8908 312.885C99.8981 305.944 107.919 302.373 115.759 304.039Z" stroke="url(#paint75_linear_101_2)" stroke-opacity="0.5" stroke-width="3"/>
<path opacity="0.767677" d="M116.667 304.092L359.247 360.096C367.056 361.899 372.816 368.526 373.515 376.51L395.213 624.523C395.912 632.507 391.39 640.033 384.012 643.165L154.842 740.441C147.465 743.573 138.91 741.598 133.652 735.549L-29.6811 547.656C-34.9392 541.607 -35.7044 532.861 -31.5766 525.991L96.6477 312.59C100.776 305.72 108.858 302.289 116.667 304.092Z" stroke="url(#paint76_linear_101_2)" stroke-opacity="0.5" stroke-width="3"/>
<path opacity="0.777778" d="M117.583 304.217L358.578 364.304C366.355 366.243 371.998 372.969 372.558 380.964L389.883 628.732C390.442 636.727 385.79 644.173 378.358 647.175L148.071 740.218C140.64 743.22 132.121 741.096 126.969 734.956L-32.682 544.692C-37.8337 538.552 -38.4462 529.793 -34.1991 522.996L97.4185 312.364C101.666 305.567 109.806 302.278 117.583 304.217Z" stroke="url(#paint77_linear_101_2)" stroke-opacity="0.5" stroke-width="3"/>
<path opacity="0.787879" d="M118.506 304.414L357.848 368.546C365.589 370.62 371.115 377.443 371.534 385.447L384.502 632.893C384.922 640.896 380.14 648.26 372.658 651.132L141.33 739.93C133.848 742.802 125.367 740.53 120.323 734.301L-35.6131 541.736C-40.6569 535.508 -41.1164 526.74 -36.7513 520.018L98.2021 312.208C102.567 305.486 110.764 302.34 118.506 304.414Z" stroke="url(#paint78_linear_101_2)" stroke-opacity="0.5" stroke-width="3"/>
<path opacity="0.79798" d="M119.434 304.681L357.055 372.818C364.759 375.027 370.165 381.946 370.444 389.956L379.071 637.002C379.351 645.012 374.441 652.291 366.91 655.032L134.621 739.579C127.089 742.32 118.649 739.9 113.715 733.584L-38.475 538.79C-43.4093 532.475 -43.7157 523.7 -39.234 517.055L98.997 312.119C103.479 305.475 111.729 302.472 119.434 304.681Z" stroke="url(#paint79_linear_101_2)" stroke-opacity="0.5" stroke-width="3"/>
<path opacity="0.808081" d="M120.366 305.021L356.199 377.123C363.864 379.466 369.148 386.478 369.288 394.492L373.592 641.064C373.732 649.077 368.696 656.269 361.118 658.878L127.944 739.167C120.366 741.776 111.969 739.209 107.146 732.808L-41.2675 535.857C-46.0909 529.456 -46.2441 520.678 -41.6471 514.112L99.8023 312.102C104.399 305.536 112.701 302.678 120.366 305.021Z" stroke="url(#paint80_linear_101_2)" stroke-opacity="0.5" stroke-width="3"/>
<path opacity="0.818182" d="M121.3 305.431L355.281 381.456C362.903 383.933 368.064 391.036 368.064 399.051L368.064 645.073C368.064 653.087 362.903 660.191 355.28 662.667L121.3 738.692C113.677 741.169 105.327 738.456 100.616 731.972L-43.9918 532.936C-48.7027 526.452 -48.7027 517.672 -43.9918 511.188L100.616 312.152C105.327 305.668 113.677 302.955 121.3 305.431Z" stroke="url(#paint81_linear_101_2)" stroke-opacity="0.5" stroke-width="3"/>
<path opacity="0.828283" d="M122.236 305.914L354.298 385.819C361.876 388.429 366.912 395.621 366.772 403.634L362.489 649.031C362.349 657.044 357.065 664.056 349.401 666.4L114.691 738.158C107.026 740.501 98.7247 737.642 94.1277 731.077L-46.6475 530.029C-51.2445 523.464 -51.0913 514.685 -46.2679 508.285L101.438 312.272C106.261 305.872 114.658 303.305 122.236 305.914Z" stroke="url(#paint82_linear_101_2)" stroke-opacity="0.5" stroke-width="3"/>
<path opacity="0.838384" d="M123.172 306.467L353.252 390.209C360.783 392.95 365.693 400.229 365.413 408.239L356.868 652.936C356.589 660.946 351.183 667.865 343.479 670.074L108.118 737.563C100.413 739.772 92.163 736.769 87.6812 730.124L-49.2351 527.138C-53.7168 520.493 -53.4104 511.718 -48.4761 505.403L102.266 312.461C107.201 306.146 115.641 303.726 123.172 306.467Z" stroke="url(#paint83_linear_101_2)" stroke-opacity="0.5" stroke-width="3"/>
<path opacity="0.848485" d="M124.106 307.092L352.141 394.626C359.624 397.498 364.406 404.862 363.986 412.866L351.203 656.789C350.783 664.793 345.258 671.616 337.516 673.691L101.581 736.91C93.839 738.984 85.6422 735.837 81.2771 729.116L-51.7556 524.263C-56.1207 517.542 -55.6612 508.774 -50.6174 502.545L103.099 312.721C108.143 306.492 116.624 304.22 124.106 307.092Z" stroke="url(#paint84_linear_101_2)" stroke-opacity="0.5" stroke-width="3"/>
<path opacity="0.858586" d="M125.039 307.787L350.966 399.067C358.397 402.07 363.05 409.516 362.491 417.511L345.493 660.588C344.934 668.583 339.291 675.309 331.514 677.248L95.0814 736.197C87.3048 738.136 79.1641 734.847 74.9169 728.05L-54.2088 521.406C-58.456 514.609 -57.8435 505.85 -52.6918 499.711L103.937 313.048C109.088 306.908 117.608 304.784 125.039 307.787Z" stroke="url(#paint85_linear_101_2)" stroke-opacity="0.5" stroke-width="3"/>
<path opacity="0.868687" d="M125.967 308.553L349.726 403.533C357.104 406.665 361.626 414.19 360.927 422.175L339.741 664.333C339.043 672.317 333.282 678.943 325.473 680.746L88.6204 735.428C80.8112 737.231 72.7291 733.8 68.6012 726.93L-56.5957 518.567C-60.7236 511.697 -59.9583 502.951 -54.7002 496.902L104.776 313.445C110.035 307.396 118.59 305.421 125.967 308.553Z" stroke="url(#paint86_linear_101_2)" stroke-opacity="0.5" stroke-width="3"/>
<path opacity="0.878788" d="M126.891 309.39L348.421 408.022C355.743 411.282 360.133 418.885 359.295 426.856L333.947 668.023C333.11 675.994 327.235 682.518 319.395 684.185L82.1992 734.602C74.3596 736.269 66.3387 732.697 62.3313 725.757L-58.9162 515.75C-62.9236 508.809 -62.0058 500.077 -56.6429 494.121L105.618 313.912C110.981 307.956 119.569 306.13 126.891 309.39Z" stroke="url(#paint87_linear_101_2)" stroke-opacity="0.5" stroke-width="3"/>
<path opacity="0.888889" d="M127.808 310.297L347.05 412.531C354.314 415.918 358.571 423.597 357.594 431.552L328.113 671.657C327.136 679.612 321.148 686.033 313.281 687.562L75.8181 733.72C67.9506 735.249 59.9932 731.539 56.1076 724.529L-61.1714 512.952C-65.057 505.942 -63.987 497.228 -58.521 491.366L106.459 314.446C111.925 308.585 120.544 306.91 127.808 310.297Z" stroke="url(#paint88_linear_101_2)" stroke-opacity="0.5" stroke-width="3"/>
<path opacity="0.89899" d="M128.717 311.274L345.614 417.061C352.817 420.574 356.939 428.327 355.824 436.263L322.239 675.234C321.123 683.171 315.024 689.487 307.131 690.879L69.478 732.783C61.5851 734.175 53.6936 730.326 49.9309 723.25L-63.3617 510.177C-67.1244 503.101 -65.9024 494.406 -60.335 488.641L107.3 315.05C112.867 309.285 121.514 307.76 128.717 311.274Z" stroke="url(#paint89_linear_101_2)" stroke-opacity="0.5" stroke-width="3"/>
<path opacity="0.909091" d="M129.618 312.321L344.112 421.611C351.253 425.25 355.239 433.073 353.985 440.989L316.327 678.757C315.073 686.673 308.864 692.881 300.948 694.135L63.1804 731.794C55.2644 733.047 47.4413 729.061 43.8027 721.92L-65.4872 507.427C-69.1258 500.285 -67.7523 491.614 -62.085 485.946L108.138 315.723C113.805 310.056 122.477 308.683 129.618 312.321Z" stroke="url(#paint90_linear_101_2)" stroke-opacity="0.5" stroke-width="3"/>
<path opacity="0.919192" d="M130.509 313.436L342.544 426.177C349.62 429.94 353.469 437.831 352.077 445.724L310.377 682.22C308.985 690.112 302.669 696.212 294.732 697.327L56.9255 730.749C48.9888 731.864 41.2366 727.742 37.7231 720.539L-67.549 504.699C-71.0624 497.495 -69.5378 488.848 -63.7725 483.281L108.973 316.463C114.738 310.895 123.432 309.673 130.509 313.436Z" stroke="url(#paint91_linear_101_2)" stroke-opacity="0.5" stroke-width="3"/>
<path opacity="0.929293" d="M131.388 314.621L340.909 430.76C347.919 434.646 351.629 442.603 350.1 450.471L304.391 685.626C302.861 693.493 296.44 699.481 288.485 700.458L50.7145 729.652C42.7596 730.629 35.0804 726.372 31.6933 719.109L-69.5476 501.997C-72.9347 494.733 -71.2594 486.115 -65.3978 480.648L109.802 317.272C115.664 311.806 124.379 310.736 131.388 314.621Z" stroke="url(#paint92_linear_101_2)" stroke-opacity="0.5" stroke-width="3"/>
<path opacity="0.939394" d="M132.255 315.875L339.208 435.359C346.149 439.366 349.72 447.387 348.054 455.227L298.37 688.973C296.703 696.813 290.178 702.688 282.208 703.526L44.5483 728.505C36.5776 729.342 28.9739 724.952 25.714 717.631L-71.4832 499.322C-74.7431 492 -72.9176 483.412 -66.9615 478.049L110.627 318.148C116.583 312.785 125.315 311.868 132.255 315.875Z" stroke="url(#paint93_linear_101_2)" stroke-opacity="0.5" stroke-width="3"/>
<path opacity="0.949495" d="M133.109 317.198L337.441 439.973C344.311 444.101 347.741 452.183 345.938 459.992L292.314 692.263C290.511 700.072 283.885 705.833 275.901 706.531L38.4274 727.307C30.4432 728.006 22.9173 723.484 19.7857 716.106L-73.357 496.676C-76.4886 489.298 -74.5136 480.743 -68.4648 475.485L111.443 319.093C117.492 313.835 126.239 313.07 133.109 317.198Z" stroke="url(#paint94_linear_101_2)" stroke-opacity="0.5" stroke-width="3"/>
<path opacity="0.959596" d="M133.947 318.587L335.607 444.598C342.404 448.845 345.693 456.986 343.754 464.763L286.227 695.492C284.288 703.269 277.562 708.912 269.567 709.471L32.3531 726.059C24.3579 726.618 16.912 721.965 13.9097 714.534L-75.1691 494.057C-78.1714 486.625 -76.0474 478.106 -69.9077 472.954L112.252 320.104C118.392 314.952 127.15 314.34 133.947 318.587Z" stroke="url(#paint95_linear_101_2)" stroke-opacity="0.5" stroke-width="3"/>
<path opacity="0.969697" d="M134.769 320.045L333.706 449.236C340.428 453.601 343.574 461.798 341.5 469.54L280.107 698.662C278.032 706.404 271.209 711.929 263.205 712.349L26.3253 724.763C18.3216 725.182 10.9581 720.4 8.08588 712.918L-76.9208 491.468C-79.793 483.986 -77.5206 475.505 -71.292 470.461L113.051 321.183C119.28 316.139 128.048 315.68 134.769 320.045Z" stroke="url(#paint96_linear_101_2)" stroke-opacity="0.5" stroke-width="3"/>
<path opacity="0.979798" d="M135.574 321.568L331.739 453.883C338.383 458.365 341.386 466.615 339.177 474.319L273.957 701.77C271.747 709.475 264.829 714.88 256.819 715.16L20.3458 723.418C12.336 723.697 5.05705 718.788 2.31587 711.256L-78.612 488.909C-81.3532 481.377 -78.9331 472.938 -72.6174 468.003L113.84 322.327C120.155 317.393 128.93 317.086 135.574 321.568Z" stroke="url(#paint97_linear_101_2)" stroke-opacity="0.5" stroke-width="3"/>
<path opacity="0.989899" d="M136.361 323.159L329.705 458.54C336.27 463.137 339.129 471.439 336.785 479.104L267.777 704.82C265.434 712.484 258.422 717.768 250.408 717.908L14.4147 722.027C6.40124 722.167 -0.790954 717.131 -3.40028 709.553L-80.2439 486.383C-82.8533 478.805 -80.2862 470.408 -73.8854 465.585L114.616 323.539C121.017 318.716 129.796 318.562 136.361 323.159Z" stroke="url(#paint98_linear_101_2)" stroke-opacity="0.5" stroke-width="3"/>
<path d="M137.128 324.816L327.604 463.206C334.088 467.916 336.801 476.267 334.325 483.889L261.569 707.807C259.093 715.43 251.989 720.591 243.975 720.591H8.53309C0.518402 720.591 -6.58479 715.43 -9.06147 707.808L-81.8169 483.889C-84.2936 476.267 -81.5804 467.916 -75.0964 463.206L115.38 324.816C121.864 320.106 130.644 320.106 137.128 324.816Z" stroke="url(#paint99_linear_101_2)" stroke-opacity="0.5" stroke-width="3"/>
<g style="mix-blend-mode:darken" filter="url(#filter0_d_101_2)">
<path fill-rule="evenodd" clip-rule="evenodd" d="M1298.11 699.561L1299.29 598.383C1248.74 591.897 1095.93 673.62 995.18 631.179C894.434 588.739 794.033 516.83 692.805 515.647C591.577 514.464 489.522 584.007 388.088 600.506C286.653 617.005 185.354 535.26 152.862 500.004L1.78625 302.731L-3.0868 719.723L133.571 721.32C184.185 721.912 285.413 723.095 386.641 724.278C487.869 725.461 589.097 726.644 690.325 727.827C791.553 729.009 892.781 730.192 994.009 731.375C1095.24 732.558 1196.47 733.741 1247.08 734.333L1297.69 734.924L1298.11 699.561Z" fill="white" fill-opacity="0.3" shape-rendering="crispEdges"/>
<path fill-rule="evenodd" clip-rule="evenodd" d="M1298.11 699.561L1299.29 598.383C1248.74 591.897 1095.93 673.62 995.18 631.179C894.434 588.739 794.033 516.83 692.805 515.647C591.577 514.464 489.522 584.007 388.088 600.506C286.653 617.005 185.354 535.26 152.862 500.004L1.78625 302.731L-3.0868 719.723L133.571 721.32C184.185 721.912 285.413 723.095 386.641 724.278C487.869 725.461 589.097 726.644 690.325 727.827C791.553 729.009 892.781 730.192 994.009 731.375C1095.24 732.558 1196.47 733.741 1247.08 734.333L1297.69 734.924L1298.11 699.561Z" stroke="url(#paint100_linear_101_2)" shape-rendering="crispEdges"/>
</g>
</g>
<defs>
<filter id="filter0_d_101_2" x="-23.5925" y="277.278" width="1343.39" height="474.153" filterUnits="userSpaceOnUse" color-interpolation-filters="sRGB">
<feFlood flood-opacity="0" result="BackgroundImageFix"/>
<feColorMatrix in="SourceAlpha" type="matrix" values="0 0 0 0 0 0 0 0 0 0 0 0 0 0 0 0 0 0 127 0" result="hardAlpha"/>
<feOffset dy="-4"/>
<feGaussianBlur stdDeviation="10"/>
<feComposite in2="hardAlpha" operator="out"/>
<feColorMatrix type="matrix" values="0 0 0 0 0.86 0 0 0 0 0 0 0 0 0 1 0 0 0 0.2 0"/>
<feBlend mode="normal" in2="BackgroundImageFix" result="effect1_dropShadow_101_2"/>
<feBlend mode="normal" in="SourceGraphic" in2="effect1_dropShadow_101_2" result="shape"/>
</filter>
<linearGradient id="paint0_linear_101_2" x1="11" y1="8.00003" x2="1305" y2="702" gradientUnits="userSpaceOnUse">
<stop stop-color="#1627BD" stop-opacity="0.72"/>
<stop offset="0.229167" stop-color="#891CBC" stop-opacity="0.79"/>
<stop offset="0.473958" stop-color="#ED89AD" stop-opacity="0.84"/>
<stop offset="0.708333" stop-color="#D76666" stop-opacity="0.58"/>
<stop offset="1" stop-color="#49CBF4" stop-opacity="0.53"/>
</linearGradient>
<linearGradient id="paint1_linear_101_2" x1="443.066" y1="600.303" x2="397.706" y2="277.554" gradientUnits="userSpaceOnUse">
<stop stop-color="#FF1CF7"/>
<stop offset="1" stop-color="#00F0FF"/>
</linearGradient>
<linearGradient id="paint2_linear_101_2" x1="437.264" y1="601.387" x2="397.617" y2="278.486" gradientUnits="userSpaceOnUse">
<stop stop-color="#FF1CF7"/>
<stop offset="1" stop-color="#00F0FF"/>
</linearGradient>
<linearGradient id="paint3_linear_101_2" x1="431.467" y1="602.422" x2="397.523" y2="279.469" gradientUnits="userSpaceOnUse">
<stop stop-color="#FF1CF7"/>
<stop offset="1" stop-color="#00F0FF"/>
</linearGradient>
<linearGradient id="paint4_linear_101_2" x1="425.674" y1="603.409" x2="397.423" y2="280.505" gradientUnits="userSpaceOnUse">
<stop stop-color="#FF1CF7"/>
<stop offset="1" stop-color="#00F0FF"/>
</linearGradient>
<linearGradient id="paint5_linear_101_2" x1="419.887" y1="604.346" x2="397.317" y2="281.591" gradientUnits="userSpaceOnUse">
<stop stop-color="#FF1CF7"/>
<stop offset="1" stop-color="#00F0FF"/>
</linearGradient>
<linearGradient id="paint6_linear_101_2" x1="414.106" y1="605.233" x2="397.204" y2="282.728" gradientUnits="userSpaceOnUse">
<stop stop-color="#FF1CF7"/>
<stop offset="1" stop-color="#00F0FF"/>
</linearGradient>
<linearGradient id="paint7_linear_101_2" x1="408.333" y1="606.071" x2="397.083" y2="283.915" gradientUnits="userSpaceOnUse">
<stop stop-color="#FF1CF7"/>
<stop offset="1" stop-color="#00F0FF"/>
</linearGradient>
<linearGradient id="paint8_linear_101_2" x1="402.568" y1="606.862" x2="396.953" y2="285.153" gradientUnits="userSpaceOnUse">
<stop stop-color="#FF1CF7"/>
<stop offset="1" stop-color="#00F0FF"/>
</linearGradient>
<linearGradient id="paint9_linear_101_2" x1="396.813" y1="607.604" x2="396.813" y2="286.441" gradientUnits="userSpaceOnUse">
<stop stop-color="#FF1CF7"/>
<stop offset="1" stop-color="#00F0FF"/>
</linearGradient>
<linearGradient id="paint10_linear_101_2" x1="391.067" y1="608.297" x2="396.662" y2="287.778" gradientUnits="userSpaceOnUse">
<stop stop-color="#FF1CF7"/>
<stop offset="1" stop-color="#00F0FF"/>
</linearGradient>
<linearGradient id="paint11_linear_101_2" x1="385.333" y1="608.945" x2="396.5" y2="289.166" gradientUnits="userSpaceOnUse">
<stop stop-color="#FF1CF7"/>
<stop offset="1" stop-color="#00F0FF"/>
</linearGradient>
<linearGradient id="paint12_linear_101_2" x1="379.61" y1="609.543" x2="396.325" y2="290.601" gradientUnits="userSpaceOnUse">
<stop stop-color="#FF1CF7"/>
<stop offset="1" stop-color="#00F0FF"/>
</linearGradient>
<linearGradient id="paint13_linear_101_2" x1="373.899" y1="610.095" x2="396.136" y2="292.087" gradientUnits="userSpaceOnUse">
<stop stop-color="#FF1CF7"/>
<stop offset="1" stop-color="#00F0FF"/>
</linearGradient>
<linearGradient id="paint14_linear_101_2" x1="368.202" y1="610.6" x2="395.934" y2="293.621" gradientUnits="userSpaceOnUse">
<stop stop-color="#FF1CF7"/>
<stop offset="1" stop-color="#00F0FF"/>
</linearGradient>
<linearGradient id="paint15_linear_101_2" x1="362.519" y1="611.058" x2="395.717" y2="295.203" gradientUnits="userSpaceOnUse">
<stop stop-color="#FF1CF7"/>
<stop offset="1" stop-color="#00F0FF"/>
</linearGradient>
<linearGradient id="paint16_linear_101_2" x1="356.851" y1="611.47" x2="395.483" y2="296.833" gradientUnits="userSpaceOnUse">
<stop stop-color="#FF1CF7"/>
<stop offset="1" stop-color="#00F0FF"/>
</linearGradient>
<linearGradient id="paint17_linear_101_2" x1="351.198" y1="611.837" x2="395.233" y2="298.511" gradientUnits="userSpaceOnUse">
<stop stop-color="#FF1CF7"/>
<stop offset="1" stop-color="#00F0FF"/>
</linearGradient>
<linearGradient id="paint18_linear_101_2" x1="345.562" y1="612.157" x2="394.966" y2="300.235" gradientUnits="userSpaceOnUse">
<stop stop-color="#FF1CF7"/>
<stop offset="1" stop-color="#00F0FF"/>
</linearGradient>
<linearGradient id="paint19_linear_101_2" x1="339.944" y1="612.434" x2="394.68" y2="302.007" gradientUnits="userSpaceOnUse">
<stop stop-color="#FF1CF7"/>
<stop offset="1" stop-color="#00F0FF"/>
</linearGradient>
<linearGradient id="paint20_linear_101_2" x1="334.343" y1="612.663" x2="394.376" y2="303.823" gradientUnits="userSpaceOnUse">
<stop stop-color="#FF1CF7"/>
<stop offset="1" stop-color="#00F0FF"/>
</linearGradient>
<linearGradient id="paint21_linear_101_2" x1="328.762" y1="612.851" x2="394.051" y2="305.687" gradientUnits="userSpaceOnUse">
<stop stop-color="#FF1CF7"/>
<stop offset="1" stop-color="#00F0FF"/>
</linearGradient>
<linearGradient id="paint22_linear_101_2" x1="323.199" y1="612.993" x2="393.706" y2="307.595" gradientUnits="userSpaceOnUse">
<stop stop-color="#FF1CF7"/>
<stop offset="1" stop-color="#00F0FF"/>
</linearGradient>
<linearGradient id="paint23_linear_101_2" x1="317.657" y1="613.093" x2="393.339" y2="309.549" gradientUnits="userSpaceOnUse">
<stop stop-color="#FF1CF7"/>
<stop offset="1" stop-color="#00F0FF"/>
</linearGradient>
<linearGradient id="paint24_linear_101_2" x1="312.137" y1="613.15" x2="392.951" y2="311.548" gradientUnits="userSpaceOnUse">
<stop stop-color="#FF1CF7"/>
<stop offset="1" stop-color="#00F0FF"/>
</linearGradient>
<linearGradient id="paint25_linear_101_2" x1="306.637" y1="613.164" x2="392.539" y2="313.589" gradientUnits="userSpaceOnUse">
<stop stop-color="#FF1CF7"/>
<stop offset="1" stop-color="#00F0FF"/>
</linearGradient>
<linearGradient id="paint26_linear_101_2" x1="301.161" y1="613.135" x2="392.104" y2="315.674" gradientUnits="userSpaceOnUse">
<stop stop-color="#FF1CF7"/>
<stop offset="1" stop-color="#00F0FF"/>
</linearGradient>
<linearGradient id="paint27_linear_101_2" x1="295.707" y1="613.066" x2="391.644" y2="317.803" gradientUnits="userSpaceOnUse">
<stop stop-color="#FF1CF7"/>
<stop offset="1" stop-color="#00F0FF"/>
</linearGradient>
<linearGradient id="paint28_linear_101_2" x1="290.278" y1="612.955" x2="391.159" y2="319.974" gradientUnits="userSpaceOnUse">
<stop stop-color="#FF1CF7"/>
<stop offset="1" stop-color="#00F0FF"/>
</linearGradient>
<linearGradient id="paint29_linear_101_2" x1="284.873" y1="612.805" x2="390.649" y2="322.188" gradientUnits="userSpaceOnUse">
<stop stop-color="#FF1CF7"/>
<stop offset="1" stop-color="#00F0FF"/>
</linearGradient>
<linearGradient id="paint30_linear_101_2" x1="279.493" y1="612.613" x2="390.112" y2="324.441" gradientUnits="userSpaceOnUse">
<stop stop-color="#FF1CF7"/>
<stop offset="1" stop-color="#00F0FF"/>
</linearGradient>
<linearGradient id="paint31_linear_101_2" x1="274.139" y1="612.383" x2="389.547" y2="326.737" gradientUnits="userSpaceOnUse">
<stop stop-color="#FF1CF7"/>
<stop offset="1" stop-color="#00F0FF"/>
</linearGradient>
<linearGradient id="paint32_linear_101_2" x1="268.812" y1="612.112" x2="388.955" y2="329.072" gradientUnits="userSpaceOnUse">
<stop stop-color="#FF1CF7"/>
<stop offset="1" stop-color="#00F0FF"/>
</linearGradient>
<linearGradient id="paint33_linear_101_2" x1="263.512" y1="611.805" x2="388.335" y2="331.447" gradientUnits="userSpaceOnUse">
<stop stop-color="#FF1CF7"/>
<stop offset="1" stop-color="#00F0FF"/>
</linearGradient>
<linearGradient id="paint34_linear_101_2" x1="258.239" y1="611.458" x2="387.685" y2="333.861" gradientUnits="userSpaceOnUse">
<stop stop-color="#FF1CF7"/>
<stop offset="1" stop-color="#00F0FF"/>
</linearGradient>
<linearGradient id="paint35_linear_101_2" x1="252.995" y1="611.076" x2="387.005" y2="336.315" gradientUnits="userSpaceOnUse">
<stop stop-color="#FF1CF7"/>
<stop offset="1" stop-color="#00F0FF"/>
</linearGradient>
<linearGradient id="paint36_linear_101_2" x1="247.78" y1="610.656" x2="386.295" y2="338.805" gradientUnits="userSpaceOnUse">
<stop stop-color="#FF1CF7"/>
<stop offset="1" stop-color="#00F0FF"/>
</linearGradient>
<linearGradient id="paint37_linear_101_2" x1="242.595" y1="610.2" x2="385.554" y2="341.334" gradientUnits="userSpaceOnUse">
<stop stop-color="#FF1CF7"/>
<stop offset="1" stop-color="#00F0FF"/>
</linearGradient>
<linearGradient id="paint38_linear_101_2" x1="237.44" y1="609.708" x2="384.782" y2="343.898" gradientUnits="userSpaceOnUse">
<stop stop-color="#FF1CF7"/>
<stop offset="1" stop-color="#00F0FF"/>
</linearGradient>
<linearGradient id="paint39_linear_101_2" x1="232.316" y1="609.182" x2="383.976" y2="346.499" gradientUnits="userSpaceOnUse">
<stop stop-color="#FF1CF7"/>
<stop offset="1" stop-color="#00F0FF"/>
</linearGradient>
<linearGradient id="paint40_linear_101_2" x1="227.223" y1="608.62" x2="383.139" y2="349.134" gradientUnits="userSpaceOnUse">
<stop stop-color="#FF1CF7"/>
<stop offset="1" stop-color="#00F0FF"/>
</linearGradient>
<linearGradient id="paint41_linear_101_2" x1="222.162" y1="608.027" x2="382.267" y2="351.805" gradientUnits="userSpaceOnUse">
<stop stop-color="#FF1CF7"/>
<stop offset="1" stop-color="#00F0FF"/>
</linearGradient>
<linearGradient id="paint42_linear_101_2" x1="217.134" y1="607.4" x2="381.362" y2="354.51" gradientUnits="userSpaceOnUse">
<stop stop-color="#FF1CF7"/>
<stop offset="1" stop-color="#00F0FF"/>
</linearGradient>
<linearGradient id="paint43_linear_101_2" x1="212.138" y1="606.74" x2="380.423" y2="357.247" gradientUnits="userSpaceOnUse">
<stop stop-color="#FF1CF7"/>
<stop offset="1" stop-color="#00F0FF"/>
</linearGradient>
<linearGradient id="paint44_linear_101_2" x1="207.176" y1="606.048" x2="379.448" y2="360.018" gradientUnits="userSpaceOnUse">
<stop stop-color="#FF1CF7"/>
<stop offset="1" stop-color="#00F0FF"/>
</linearGradient>
<linearGradient id="paint45_linear_101_2" x1="202.248" y1="605.326" x2="378.438" y2="362.822" gradientUnits="userSpaceOnUse">
<stop stop-color="#FF1CF7"/>
<stop offset="1" stop-color="#00F0FF"/>
</linearGradient>
<linearGradient id="paint46_linear_101_2" x1="197.355" y1="604.574" x2="377.392" y2="365.656" gradientUnits="userSpaceOnUse">
<stop stop-color="#FF1CF7"/>
<stop offset="1" stop-color="#00F0FF"/>
</linearGradient>
<linearGradient id="paint47_linear_101_2" x1="192.496" y1="603.791" x2="376.31" y2="368.52" gradientUnits="userSpaceOnUse">
<stop stop-color="#FF1CF7"/>
<stop offset="1" stop-color="#00F0FF"/>
</linearGradient>
<linearGradient id="paint48_linear_101_2" x1="187.673" y1="602.979" x2="375.19" y2="371.414" gradientUnits="userSpaceOnUse">
<stop stop-color="#FF1CF7"/>
<stop offset="1" stop-color="#00F0FF"/>
</linearGradient>
<linearGradient id="paint49_linear_101_2" x1="182.885" y1="602.139" x2="374.033" y2="374.337" gradientUnits="userSpaceOnUse">
<stop stop-color="#FF1CF7"/>
<stop offset="1" stop-color="#00F0FF"/>
</linearGradient>
<linearGradient id="paint50_linear_101_2" x1="178.134" y1="601.272" x2="372.838" y2="377.29" gradientUnits="userSpaceOnUse">
<stop stop-color="#FF1CF7"/>
<stop offset="1" stop-color="#00F0FF"/>
</linearGradient>
<linearGradient id="paint51_linear_101_2" x1="173.42" y1="600.378" x2="371.605" y2="380.27" gradientUnits="userSpaceOnUse">
<stop stop-color="#FF1CF7"/>
<stop offset="1" stop-color="#00F0FF"/>
</linearGradient>
<linearGradient id="paint52_linear_101_2" x1="168.742" y1="599.457" x2="370.333" y2="383.277" gradientUnits="userSpaceOnUse">
<stop stop-color="#FF1CF7"/>
<stop offset="1" stop-color="#00F0FF"/>
</linearGradient>
<linearGradient id="paint53_linear_101_2" x1="164.102" y1="598.511" x2="369.023" y2="386.31" gradientUnits="userSpaceOnUse">
<stop stop-color="#FF1CF7"/>
<stop offset="1" stop-color="#00F0FF"/>
</linearGradient>
<linearGradient id="paint54_linear_101_2" x1="159.5" y1="597.54" x2="367.672" y2="389.368" gradientUnits="userSpaceOnUse">
<stop stop-color="#FF1CF7"/>
<stop offset="1" stop-color="#00F0FF"/>
</linearGradient>
<linearGradient id="paint55_linear_101_2" x1="154.936" y1="596.545" x2="366.282" y2="392.451" gradientUnits="userSpaceOnUse">
<stop stop-color="#FF1CF7"/>
<stop offset="1" stop-color="#00F0FF"/>
</linearGradient>
<linearGradient id="paint56_linear_101_2" x1="150.411" y1="595.527" x2="364.851" y2="395.558" gradientUnits="userSpaceOnUse">
<stop stop-color="#FF1CF7"/>
<stop offset="1" stop-color="#00F0FF"/>
</linearGradient>
<linearGradient id="paint57_linear_101_2" x1="145.925" y1="594.486" x2="363.38" y2="398.688" gradientUnits="userSpaceOnUse">
<stop stop-color="#FF1CF7"/>
<stop offset="1" stop-color="#00F0FF"/>
</linearGradient>
<linearGradient id="paint58_linear_101_2" x1="141.478" y1="593.424" x2="361.868" y2="401.841" gradientUnits="userSpaceOnUse">
<stop stop-color="#FF1CF7"/>
<stop offset="1" stop-color="#00F0FF"/>
</linearGradient>
<linearGradient id="paint59_linear_101_2" x1="137.07" y1="592.34" x2="360.315" y2="405.015" gradientUnits="userSpaceOnUse">
<stop stop-color="#FF1CF7"/>
<stop offset="1" stop-color="#00F0FF"/>
</linearGradient>
<linearGradient id="paint60_linear_101_2" x1="132.702" y1="591.236" x2="358.72" y2="408.21" gradientUnits="userSpaceOnUse">
<stop stop-color="#FF1CF7"/>
<stop offset="1" stop-color="#00F0FF"/>
</linearGradient>
<linearGradient id="paint61_linear_101_2" x1="128.375" y1="590.112" x2="357.084" y2="411.425" gradientUnits="userSpaceOnUse">
<stop stop-color="#FF1CF7"/>
<stop offset="1" stop-color="#00F0FF"/>
</linearGradient>
<linearGradient id="paint62_linear_101_2" x1="124.087" y1="588.97" x2="355.405" y2="414.66" gradientUnits="userSpaceOnUse">
<stop stop-color="#FF1CF7"/>
<stop offset="1" stop-color="#00F0FF"/>
</linearGradient>
<linearGradient id="paint63_linear_101_2" x1="119.841" y1="587.81" x2="353.684" y2="417.913" gradientUnits="userSpaceOnUse">
<stop stop-color="#FF1CF7"/>
<stop offset="1" stop-color="#00F0FF"/>
</linearGradient>
<linearGradient id="paint64_linear_101_2" x1="115.635" y1="586.632" x2="351.921" y2="421.183" gradientUnits="userSpaceOnUse">
<stop stop-color="#FF1CF7"/>
<stop offset="1" stop-color="#00F0FF"/>
</linearGradient>
<linearGradient id="paint65_linear_101_2" x1="111.47" y1="585.438" x2="350.115" y2="424.471" gradientUnits="userSpaceOnUse">
<stop stop-color="#FF1CF7"/>
<stop offset="1" stop-color="#00F0FF"/>
</linearGradient>
<linearGradient id="paint66_linear_101_2" x1="107.347" y1="584.228" x2="348.266" y2="427.773" gradientUnits="userSpaceOnUse">
<stop stop-color="#FF1CF7"/>
<stop offset="1" stop-color="#00F0FF"/>
</linearGradient>
<linearGradient id="paint67_linear_101_2" x1="103.265" y1="583.003" x2="346.373" y2="431.092" gradientUnits="userSpaceOnUse">
<stop stop-color="#FF1CF7"/>
<stop offset="1" stop-color="#00F0FF"/>
</linearGradient>
<linearGradient id="paint68_linear_101_2" x1="99.2245" y1="581.763" x2="344.437" y2="434.425" gradientUnits="userSpaceOnUse">
<stop stop-color="#FF1CF7"/>
<stop offset="1" stop-color="#00F0FF"/>
</linearGradient>
<linearGradient id="paint69_linear_101_2" x1="95.2262" y1="580.51" x2="342.458" y2="437.771" gradientUnits="userSpaceOnUse">
<stop stop-color="#FF1CF7"/>
<stop offset="1" stop-color="#00F0FF"/>
</linearGradient>
<linearGradient id="paint70_linear_101_2" x1="91.2697" y1="579.246" x2="340.435" y2="441.131" gradientUnits="userSpaceOnUse">
<stop stop-color="#FF1CF7"/>
<stop offset="1" stop-color="#00F0FF"/>
</linearGradient>
<linearGradient id="paint71_linear_101_2" x1="87.3555" y1="577.968" x2="338.368" y2="444.502" gradientUnits="userSpaceOnUse">
<stop stop-color="#FF1CF7"/>
<stop offset="1" stop-color="#00F0FF"/>
</linearGradient>
<linearGradient id="paint72_linear_101_2" x1="83.4834" y1="576.68" x2="336.257" y2="447.886" gradientUnits="userSpaceOnUse">
<stop stop-color="#FF1CF7"/>
<stop offset="1" stop-color="#00F0FF"/>
</linearGradient>
<linearGradient id="paint73_linear_101_2" x1="79.6539" y1="575.381" x2="334.102" y2="451.279" gradientUnits="userSpaceOnUse">
<stop stop-color="#FF1CF7"/>
<stop offset="1" stop-color="#00F0FF"/>
</linearGradient>
<linearGradient id="paint74_linear_101_2" x1="75.8665" y1="574.074" x2="331.903" y2="454.682" gradientUnits="userSpaceOnUse">
<stop stop-color="#FF1CF7"/>
<stop offset="1" stop-color="#00F0FF"/>
</linearGradient>
<linearGradient id="paint75_linear_101_2" x1="72.1218" y1="572.756" x2="329.659" y2="458.093" gradientUnits="userSpaceOnUse">
<stop stop-color="#FF1CF7"/>
<stop offset="1" stop-color="#00F0FF"/>
</linearGradient>
<linearGradient id="paint76_linear_101_2" x1="68.4198" y1="571.431" x2="327.372" y2="461.513" gradientUnits="userSpaceOnUse">
<stop stop-color="#FF1CF7"/>
<stop offset="1" stop-color="#00F0FF"/>
</linearGradient>
<linearGradient id="paint77_linear_101_2" x1="64.7603" y1="570.1" x2="325.04" y2="464.94" gradientUnits="userSpaceOnUse">
<stop stop-color="#FF1CF7"/>
<stop offset="1" stop-color="#00F0FF"/>
</linearGradient>
<linearGradient id="paint78_linear_101_2" x1="61.1436" y1="568.762" x2="322.663" y2="468.374" gradientUnits="userSpaceOnUse">
<stop stop-color="#FF1CF7"/>
<stop offset="1" stop-color="#00F0FF"/>
</linearGradient>
<linearGradient id="paint79_linear_101_2" x1="57.5695" y1="567.417" x2="320.243" y2="471.812" gradientUnits="userSpaceOnUse">
<stop stop-color="#FF1CF7"/>
<stop offset="1" stop-color="#00F0FF"/>
</linearGradient>
<linearGradient id="paint80_linear_101_2" x1="54.0383" y1="566.068" x2="317.778" y2="475.256" gradientUnits="userSpaceOnUse">
<stop stop-color="#FF1CF7"/>
<stop offset="1" stop-color="#00F0FF"/>
</linearGradient>
<linearGradient id="paint81_linear_101_2" x1="50.5494" y1="564.715" x2="315.268" y2="478.702" gradientUnits="userSpaceOnUse">
<stop stop-color="#FF1CF7"/>
<stop offset="1" stop-color="#00F0FF"/>
</linearGradient>
<linearGradient id="paint82_linear_101_2" x1="47.1035" y1="563.358" x2="312.714" y2="482.153" gradientUnits="userSpaceOnUse">
<stop stop-color="#FF1CF7"/>
<stop offset="1" stop-color="#00F0FF"/>
</linearGradient>
<linearGradient id="paint83_linear_101_2" x1="43.7003" y1="561.999" x2="310.116" y2="485.605" gradientUnits="userSpaceOnUse">
<stop stop-color="#FF1CF7"/>
<stop offset="1" stop-color="#00F0FF"/>
</linearGradient>
<linearGradient id="paint84_linear_101_2" x1="40.3395" y1="560.639" x2="307.473" y2="489.06" gradientUnits="userSpaceOnUse">
<stop stop-color="#FF1CF7"/>
<stop offset="1" stop-color="#00F0FF"/>
</linearGradient>
<linearGradient id="paint85_linear_101_2" x1="37.0214" y1="559.276" x2="304.787" y2="492.515" gradientUnits="userSpaceOnUse">
<stop stop-color="#FF1CF7"/>
<stop offset="1" stop-color="#00F0FF"/>
</linearGradient>
<linearGradient id="paint86_linear_101_2" x1="33.7457" y1="557.914" x2="302.056" y2="495.97" gradientUnits="userSpaceOnUse">
<stop stop-color="#FF1CF7"/>
<stop offset="1" stop-color="#00F0FF"/>
</linearGradient>
<linearGradient id="paint87_linear_101_2" x1="30.5126" y1="556.553" x2="299.281" y2="499.424" gradientUnits="userSpaceOnUse">
<stop stop-color="#FF1CF7"/>
<stop offset="1" stop-color="#00F0FF"/>
</linearGradient>
<linearGradient id="paint88_linear_101_2" x1="27.3216" y1="555.192" x2="296.462" y2="502.877" gradientUnits="userSpaceOnUse">
<stop stop-color="#FF1CF7"/>
<stop offset="1" stop-color="#00F0FF"/>
</linearGradient>
<linearGradient id="paint89_linear_101_2" x1="24.1726" y1="553.834" x2="293.6" y2="506.327" gradientUnits="userSpaceOnUse">
<stop stop-color="#FF1CF7"/>
<stop offset="1" stop-color="#00F0FF"/>
</linearGradient>
<linearGradient id="paint90_linear_101_2" x1="21.066" y1="552.48" x2="290.694" y2="509.775" gradientUnits="userSpaceOnUse">
<stop stop-color="#FF1CF7"/>
<stop offset="1" stop-color="#00F0FF"/>
</linearGradient>
<linearGradient id="paint91_linear_101_2" x1="18.0011" y1="551.127" x2="287.744" y2="513.217" gradientUnits="userSpaceOnUse">
<stop stop-color="#FF1CF7"/>
<stop offset="1" stop-color="#00F0FF"/>
</linearGradient>
<linearGradient id="paint92_linear_101_2" x1="14.9779" y1="549.779" x2="284.751" y2="516.655" gradientUnits="userSpaceOnUse">
<stop stop-color="#FF1CF7"/>
<stop offset="1" stop-color="#00F0FF"/>
</linearGradient>
<linearGradient id="paint93_linear_101_2" x1="11.9964" y1="548.437" x2="281.715" y2="520.088" gradientUnits="userSpaceOnUse">
<stop stop-color="#FF1CF7"/>
<stop offset="1" stop-color="#00F0FF"/>
</linearGradient>
<linearGradient id="paint94_linear_101_2" x1="9.05601" y1="547.101" x2="278.636" y2="523.516" gradientUnits="userSpaceOnUse">
<stop stop-color="#FF1CF7"/>
<stop offset="1" stop-color="#00F0FF"/>
</linearGradient>
<linearGradient id="paint95_linear_101_2" x1="6.1572" y1="545.77" x2="275.514" y2="526.935" gradientUnits="userSpaceOnUse">
<stop stop-color="#FF1CF7"/>
<stop offset="1" stop-color="#00F0FF"/>
</linearGradient>
<linearGradient id="paint96_linear_101_2" x1="3.2989" y1="544.447" x2="272.35" y2="530.347" gradientUnits="userSpaceOnUse">
<stop stop-color="#FF1CF7"/>
<stop offset="1" stop-color="#00F0FF"/>
</linearGradient>
<linearGradient id="paint97_linear_101_2" x1="0.481759" y1="543.131" x2="269.144" y2="533.749" gradientUnits="userSpaceOnUse">
<stop stop-color="#FF1CF7"/>
<stop offset="1" stop-color="#00F0FF"/>
</linearGradient>
<linearGradient id="paint98_linear_101_2" x1="-2.29502" y1="541.825" x2="265.895" y2="537.144" gradientUnits="userSpaceOnUse">
<stop stop-color="#FF1CF7"/>
<stop offset="1" stop-color="#00F0FF"/>
</linearGradient>
<linearGradient id="paint99_linear_101_2" x1="-5.03127" y1="540.528" x2="262.605" y2="540.528" gradientUnits="userSpaceOnUse">
<stop stop-color="#FF1CF7"/>
<stop offset="1" stop-color="#00F0FF"/>
</linearGradient>
<linearGradient id="paint100_linear_101_2" x1="1302.54" y1="606.263" x2="-1.06529" y2="315.469" gradientUnits="userSpaceOnUse">
<stop stop-color="#00F0FF"/>
<stop offset="1" stop-color="#FF00E5"/>
</linearGradient>
<clipPath id="clip0_101_2">
<rect width="1280" height="720" fill="white"/>
</clipPath>
</defs>
</svg>
