<svg width="20" height="32" viewBox="0 0 20 32" fill="none" xmlns="http://www.w3.org/2000/svg">
<g style="mix-blend-mode:luminosity">
<path fill-rule="evenodd" clip-rule="evenodd" d="M2.92893 29.0711C4.8043 30.9464 7.34784 32 10 32C11.3132 32 12.6136 31.7413 13.8268 31.2388C15.0401 30.7362 16.1425 29.9997 17.0711 29.0711C17.9997 28.1425 18.7362 27.0401 19.2388 25.8268C19.7413 24.6136 20 23.3132 20 22V10C20 7.34784 18.9464 4.8043 17.0711 2.92893C15.1957 1.05357 12.6522 0 10 0C7.34784 0 4.8043 1.05357 2.92893 2.92893C1.05357 4.8043 0 7.34784 0 10V22C0 24.6522 1.05357 27.1957 2.92893 29.0711ZM4.34315 4.34315C5.84344 2.84285 7.87827 2 10 2C12.1217 2 14.1566 2.84285 15.6569 4.34315C17.1571 5.84344 18 7.87827 18 10V22C18 24.1217 17.1571 26.1566 15.6569 27.6569C14.1566 29.1571 12.1217 30 10 30C7.87827 30 5.84344 29.1571 4.34315 27.6569C2.84285 26.1566 2 24.1217 2 22V10C2 7.87827 2.84285 5.84344 4.34315 4.34315ZM9.29289 12.7071C9.48043 12.8946 9.73478 13 10 13C10.2652 13 10.5196 12.8946 10.7071 12.7071C10.8946 12.5196 11 12.2652 11 12V8C11 7.73478 10.8946 7.48043 10.7071 7.29289C10.5196 7.10536 10.2652 7 10 7C9.73478 7 9.48043 7.10536 9.29289 7.29289C9.10536 7.48043 9 7.73478 9 8V12C9 12.2652 9.10536 12.5196 9.29289 12.7071Z" fill="white" fill-opacity="0.5"/>
</g>
</svg>
